# AST/ASF file generated using VICON BodyLanguage
# -----------------------------------------------
:version 1.10
:name VICON
:units
  mass 1.0
  length 0.45
  angle deg
:documentation
   .ast/.asf automatically generated from VICON data using
   VICON BodyBuilder and BodyLanguage model FoxedUp or BRILLIANT.MOD
:root
   order TX TY TZ RX RY RZ
   axis XYZ
   position 0 0 0  
   orientation 0 0 0 
:bonedata
  begin
     id 1 
     name lhipjoint
     direction 0.577973 -0.728611 0.367523 
     length 2.48544 
     axis 0 0 0  XYZ
  end
  begin
     id 2 
     name lfemur
     direction 0.34202 -0.939693 0  
     length 7.1921  
     axis 0 0 20  XYZ
    dof rx ry rz
    limits (-160.0 20.0)
           (-70.0 70.0)
           (-60.0 70.0)
  end
  begin
     id 3 
     name ltibia
     direction 0.34202 -0.939693 0   
     length 7.71059   
     axis 0 0 20   XYZ
    dof rx
    limits (-10.0 170.0)
  end
  begin
     id 4 
     name lfoot
     direction 0.089538 -0.246004 0.965124   
     length 2.19909   
     axis -90 7.62852e-016 20   XYZ
    dof rx rz
    limits (-45.0 90.0)
           (-70.0 20.0)
  end
  begin
     id 5 
     name ltoes
     direction 1.53544e-011 -4.21829e-011 1   
     length 1.10116   
     axis -90 7.62852e-016 20   XYZ
    dof rx
    limits (-90.0 20.0)
  end
  begin
     id 6 
     name rhipjoint
     direction -0.554414 -0.743062 0.374812   
     length 2.4371  
     axis 0 0 0  XYZ 
  end
  begin
     id 7 
     name rfemur
     direction -0.34202 -0.939693 0   
     length 7.47254   
     axis 0 0 -20   XYZ
    dof rx ry rz
    limits (-160.0 20.0)
           (-70.0 70.0)
           (-70.0 60.0)
  end
  begin
     id 8 
     name rtibia
     direction -0.34202 -0.939693 0   
     length 7.65855   
     axis 0 0 -20   XYZ
    dof rx
    limits (-10.0 170.0)
 end
 begin
     id 9 
     name rfoot
     direction -0.133779 -0.367555 0.92033   
     length 2.43006  
     axis -90 -7.62852e-016 -20   XYZ
    dof rx rz
    limits (-45.0 90.0)
           (-20.0 70.0)
  end
  begin
     id 10 
     name rtoes
     direction -1.53563e-011 -4.21889e-011 1   
     length 1.19625   
     axis -90 -7.62852e-016 -20   XYZ
    dof rx
    limits (-90.0 20.0)
  end
  begin
     id 11 
     name lowerback
     direction 0.0249066 0.998043 -0.0573585   
     length 2.08485   
     axis 0 0 0   XYZ
    dof rx ry rz
    limits (-20.0 45.0)
           (-30.0 30.0)
           (-30.0 30.0)
  end
  begin
     id 12 
     name upperback
     direction 0.0237884 0.999673 0.00943178   
     length 2.08515   
     axis 0 0 0   XYZ
    dof rx ry rz
    limits (-20.0 45.0)
           (-30.0 30.0)
           (-30.0 30.0)
  end
  begin
     id 13 
     name thorax
     direction 0.0106671 0.999301 0.0358174   
     length 2.09037   
     axis 0 0 0   XYZ
    dof rx ry rz
    limits (-20.0 45.0)
           (-30.0 30.0)
           (-30.0 30.0)
  end
  begin
     id 14 
     name lowerneck
     direction -0.0580016 0.987052 0.149546   
     length 1.84454   
     axis 0 0 0   XYZ
    dof rx ry rz
    limits (-20.0 45.0)
           (-30.0 30.0)
           (-30.0 30.0)
  end
  begin
     id 15 
     name upperneck
     direction 0.079456 0.981963 -0.171567   
     length 1.88141   
     axis 0 0 0   XYZ
    dof rx ry rz
    limits (-20.0 45.0)
           (-30.0 30.0)
           (-30.0 30.0)
  end
  begin
     id 16
     name head
     direction 0.0262167 0.9967 -0.0768276  
     length 1.89541  
     axis 0 0 0   XYZ
    dof rx ry rz
    limits (-20.0 45.0)
           (-30.0 30.0)
           (-30.0 30.0)
  end
  begin
     id 17 
     name lclavicle
     direction 0.946135 0.322134 -0.0325326  
     length 3.949  
     axis 0 0 0   XYZ
    dof ry rz
    limits (-20.0 10.0)
           (0.0 20.0)
  end
  begin
     id 18 
     name lhumerus
     direction 1 -4.48964e-011 1.94005e-028   
     length 5.10995   
     axis 180 -30 -90   XYZ
    dof rx ry rz
    limits (-60.0 90.0)
           (-90.0 90.0)
           (-90.0 90.0)
  end
  begin
     id 19
     name lradius
     direction 1 -4.48976e-011 2.87852e-027   
     length 3.21207   
     axis 180 -30 -90   XYZ
    dof rx
    limits (-10.0 170.0)
  end
  begin
     id 20
     name lwrist
     direction 1 -4.48963e-011 1.9975e-027   
     length 1.60604   
     axis 2.96054e-016 90 90   XYZ
    dof ry
    limits (-180.0 0.0)
 end
  begin
     id 21 
     name lhand
     direction 1 -4.48919e-011 4.00227e-027   
     length 0.63349   
     axis -2.5488e-015 90 90   XYZ
    dof rx rz
    limits (-90.0 90.0)
           (-45.0 45.0)
  end
  begin
     id 22 
     name lfingers
     direction 1 -4.49037e-011 7.9652e-027   
     length 0.510736   
     axis -5.0975e-015 90 90   XYZ
    dof rx
    limits (0.0 90.0)
  end
  begin
     id 23
     name lthumb
     direction 0.707107 -6.34922e-011 0.707107   
     length 0.733318   
     axis -90 45 -4.48553e-014   XYZ
    dof rx rz
    limits (-45.0 45.0)
           (-45.0 45.0)
  end
  begin
     id 24 
     name rclavicle
     direction -0.940085 0.328911 -0.0897654   
     length 3.93848  
     axis 0 0 0   XYZ 
    dof ry rz
    limits (-10.0 20.0)
           (-20.0 0.0)
  end
  begin
     id 25 
     name rhumerus
     direction -1 -4.48958e-011 3.02044e-027  
     length 5.25109   
     axis 180 30 90   XYZ
    dof rx ry rz
    limits (-90.0 60.0)
           (-90.0 90.0)
           (-90.0 90.0)
  end
  begin
     id 26 
     name rradius
     direction -1 -4.4897e-011 9.78352e-028   
     length 3.28364   
     axis 180 30 90   XYZ
    dof rx
    limits (-10.0 170.0)
  end
  begin
     id 27 
     name rwrist
     direction -1 -4.48943e-011 1.99918e-027   
     length 1.64182   
     axis 2.96054e-016 -90 -90   XYZ
    dof ry
    limits (-180.0 0.0)
  end
  begin
     id 28
     name rhand
     direction -1 -4.49024e-011 3.98478e-027   
     length 0.599745   
     axis -2.5488e-015 -90 -90   XYZ
    dof rx rz
    limits (-90.0 90.0)
           (-45.0 45.0)
  end
  begin
     id 29
     name rfingers
     direction -1 -4.48914e-011 8.00621e-027   
     length 0.48353   
     axis -5.0975e-015 -90 -90   XYZ
    dof rx
    limits (0.0 90.0)
  end
  begin
     id 30
     name rthumb
     direction -0.707107 -6.34992e-011 0.707107   
     length 0.694255   
     axis -90 -45 4.48553e-014   XYZ
    dof rx rz
    limits (-45.0 45.0)
           (-45.0 45.0)
  end
:hierarchy
  begin
    root lhipjoint rhipjoint lowerback
    lhipjoint lfemur
    lfemur ltibia
    ltibia lfoot
    lfoot ltoes
    rhipjoint rfemur
    rfemur rtibia
    rtibia rfoot
    rfoot rtoes
    lowerback upperback
    upperback thorax
    thorax lowerneck lclavicle rclavicle
    lowerneck upperneck
    upperneck head
    lclavicle lhumerus
    lhumerus lradius
    lradius lwrist
    lwrist lhand lthumb
    lhand lfingers
    rclavicle rhumerus
    rhumerus rradius
    rradius rwrist
    rwrist rhand rthumb
    rhand rfingers
  end

#!OML:ASF E:\CV Data\Top Level 1\Subject 1\Session 1\player.ASF
:FULLY-SPECIFIED
:DEGREES
874
root 11.5289 16.822 -10.6369 9.5496 -65.4514 2.11738
lowerback 9.67625 1.45756 -3.25116
upperback 0.712115 1.58551 0.432364
thorax -4.78775 0.846127 2.0645
lowerneck -16.5054 8.44689 -4.42752
upperneck 12.5052 12.1765 1.6335
head 6.10249 5.81553 2.38444
rclavicle -4.17448e-014 8.74653e-015
rhumerus 136.012 138.257 67.1574
rradius 88.6089
rwrist 9.58064
rhand -29.4764 26.2033
rfingers 7.12502
rthumb -2.81177 -3.75795
lclavicle -4.17448e-014 8.74653e-015
lhumerus -46.4874 -30.1964 112.524
lradius 93.0076
lwrist 35.4958
lhand -34.1619 12.3273
lfingers 7.12502
lthumb -7.33589 42.1801
rfemur -49.2405 -4.18886 19.7486
rtibia 40.9731
rfoot -3.12943 -12.5068
rtoes 18.5275
lfemur -3.10482 6.0775 -23.7005
ltibia 22.3834
lfoot -24.01 9.74926
ltoes -11.125
875
root 11.5306 16.8317 -10.6375 9.6475 -65.4655 1.90803
lowerback 9.7161 1.4466 -3.26966
upperback 0.668628 1.56498 0.385744
thorax -4.85351 0.837562 2.02781
lowerneck -16.5443 8.43525 -4.47979
upperneck 12.5333 12.1612 1.72431
head 6.10894 5.81264 2.42155
rclavicle 1.59525e-014 -1.51076e-014
rhumerus 135.84 138.208 66.9789
rradius 88.6732
rwrist 9.44511
rhand -29.4588 26.2181
rfingers 7.12502
rthumb -2.79479 -3.7433
lclavicle 1.59525e-014 -1.51076e-014
lhumerus -46.6938 -30.0961 112.551
lradius 93.1403
lwrist 35.3132
lhand -34.1785 12.2411
lfingers 7.12502
lthumb -7.35185 42.0934
rfemur -48.9898 -4.17345 19.8311
rtibia 40.7465
rfoot -3.11836 -12.4696
rtoes 18.5162
lfemur -2.98978 6.11452 -23.6336
ltibia 22.3249
lfoot -23.8204 9.89573
ltoes -11.1617
876
root 11.5291 16.8395 -10.6386 9.66593 -65.4856 1.78397
lowerback 9.7432 1.429 -3.34349
upperback 0.625585 1.52974 0.335349
thorax -4.91224 0.822806 2.02067
lowerneck -16.5813 8.43059 -4.53054
upperneck 12.5517 12.1542 1.8182
head 6.11156 5.81446 2.45962
rclavicle -1.62506e-014 3.84648e-014
rhumerus 135.723 138.119 66.8693
rradius 88.76
rwrist 9.33177
rhand -29.4897 26.2619
rfingers 7.12502
rthumb -2.82464 -3.69917
lclavicle -1.62506e-014 3.84648e-014
lhumerus -46.872 -30.0231 112.589
lradius 93.2968
lwrist 35.1176
lhand -34.1733 12.084
lfingers 7.12502
lthumb -7.34681 41.9365
rfemur -48.7602 -4.15964 19.8789
rtibia 40.5664
rfoot -3.11093 -12.4155
rtoes 18.5676
lfemur -2.86215 6.12343 -23.5995
ltibia 22.2706
lfoot -23.6409 10.0429
ltoes -11.1889
877
root 11.5249 16.8454 -10.6401 9.61545 -65.5151 1.74586
lowerback 9.75117 1.40525 -3.47631
upperback 0.577485 1.48016 0.279754
thorax -4.96609 0.802313 2.04368
lowerneck -16.6058 8.43067 -4.5804
upperneck 12.5547 12.1511 1.91948
head 6.10661 5.81955 2.49893
rclavicle -3.15074e-014 2.99171e-014
rhumerus 135.653 137.983 66.8173
rradius 88.8594
rwrist 9.23623
rhand -29.5831 26.3459
rfingers 7.12502
rthumb -2.91485 -3.61389
lclavicle -3.15074e-014 2.99171e-014
lhumerus -47.0109 -29.9698 112.622
lradius 93.4621
lwrist 34.8762
lhand -34.0839 11.9165
lfingers 7.12502
lthumb -7.26058 41.7719
rfemur -48.5687 -4.14975 19.8979
rtibia 40.4355
rfoot -3.10489 -12.3455
rtoes 18.682
lfemur -2.74003 6.16243 -23.5877
ltibia 22.2269
lfoot -23.4861 10.1223
ltoes -11.1961
878
root 11.5184 16.8497 -10.6424 9.54769 -65.5536 1.74915
lowerback 9.72807 1.37293 -3.64385
upperback 0.523751 1.41633 0.221076
thorax -5.00825 0.775596 2.08555
lowerneck -16.6285 8.43806 -4.63048
upperneck 12.5511 12.1563 2.03073
head 6.09822 5.82971 2.54163
rclavicle 4.37326e-015 -2.69353e-014
rhumerus 135.637 137.799 66.8171
rradius 88.9578
rwrist 9.16778
rhand -29.7301 26.4679
rfingers 7.12502
rthumb -3.05684 -3.48993
lclavicle 4.37326e-015 -2.69353e-014
lhumerus -47.1053 -29.9497 112.646
lradius 93.6331
lwrist 34.6074
lhand -34.0139 11.7576
lfingers 7.12502
lthumb -7.19299 41.6154
rfemur -48.4255 -4.13793 19.9111
rtibia 40.3507
rfoot -3.09727 -12.2661
rtoes 18.8303
lfemur -2.64378 6.24105 -23.5742
ltibia 22.2046
lfoot -23.3661 10.1152
ltoes -11.2235
879
root 11.5095 16.8524 -10.6451 9.4794 -65.611 1.77497
lowerback 9.67139 1.33719 -3.83146
upperback 0.464686 1.34668 0.153793
thorax -5.03685 0.746375 2.13105
lowerneck -16.6465 8.45163 -4.66431
upperneck 12.5396 12.1646 2.14825
head 6.08692 5.84305 2.58361
rclavicle 1.3977e-015 5.55355e-015
rhumerus 135.677 137.58 66.8567
rradius 89.0464
rwrist 9.12159
rhand -29.9095 26.6052
rfingers 7.12502
rthumb -3.23002 -3.35007
lclavicle 1.3977e-015 5.55355e-015
lhumerus -47.1594 -29.9838 112.653
lradius 93.805
lwrist 34.3148
lhand -33.9571 11.6095
lfingers 7.12502
lthumb -7.13813 41.4691
rfemur -48.3301 -4.11951 19.9293
rtibia 40.3088
rfoot -3.09216 -12.1755
rtoes 18.9916
lfemur -2.57925 6.38336 -23.5504
ltibia 22.2168
lfoot -23.2855 10.0123
ltoes -11.2584
880
root 11.4987 16.8536 -10.6483 9.42122 -65.6866 1.81651
lowerback 9.58061 1.30087 -4.03074
upperback 0.397628 1.27597 0.0751795
thorax -5.05438 0.71684 2.17181
lowerneck -16.6585 8.46741 -4.68704
upperneck 12.5246 12.1707 2.28057
head 6.07323 5.85731 2.62786
rclavicle 8.62228e-015 -3.78436e-014
rhumerus 135.766 137.341 66.9359
rradius 89.136
rwrist 9.07331
rhand -30.1022 26.7393
rfingers 7.12502
rthumb -3.41618 -3.21304
lclavicle 8.62228e-015 -3.78436e-014
lhumerus -47.1676 -30.0302 112.647
lradius 93.9651
lwrist 33.9691
lhand -33.9345 11.4804
lfingers 7.12502
lthumb -7.11639 41.3407
rfemur -48.2869 -4.09773 19.9594
rtibia 40.3071
rfoot -3.09077 -12.0776
rtoes 19.1252
lfemur -2.55489 6.57204 -23.5177
ltibia 22.2688
lfoot -23.2376 9.84024
ltoes -11.3381
881
root 11.486 16.8536 -10.6515 9.38673 -65.786 1.84664
lowerback 9.4641 1.26126 -4.22807
upperback 0.325191 1.20218 -0.0089939
thorax -5.06245 0.685695 2.20628
lowerneck -16.6643 8.48915 -4.7082
upperneck 12.509 12.1812 2.43206
head 6.0569 5.87556 2.67774
rclavicle -6.37353e-014 2.02263e-014
rhumerus 135.893 137.078 67.0395
rradius 89.2217
rwrist 9.01506
rhand -30.2573 26.8354
rfingers 7.12502
rthumb -3.56593 -3.11447
lclavicle -6.37353e-014 2.02263e-014
lhumerus -47.1341 -30.1164 112.63
lradius 94.1149
lwrist 33.6138
lhand -33.9701 11.3841
lfingers 7.12502
lthumb -7.15068 41.2433
rfemur -48.2821 -4.07005 20.0127
rtibia 40.3456
rfoot -3.10123 -11.9713
rtoes 19.2284
lfemur -2.55476 6.80963 -23.4687
ltibia 22.3564
lfoot -23.2158 9.62293
ltoes -11.5128
882
root 11.4712 16.8523 -10.654 9.35705 -65.8964 1.87908
lowerback 9.32126 1.21205 -4.4113
upperback 0.252044 1.11821 -0.103993
thorax -5.05492 0.648819 2.2231
lowerneck -16.666 8.51788 -4.72728
upperneck 12.4974 12.1981 2.59953
head 6.03991 5.89835 2.73267
rclavicle -3.32964e-015 7.25564e-015
rhumerus 136.062 136.796 67.1666
rradius 89.3053
rwrist 8.9285
rhand -30.3736 26.9035
rfingers 7.12502
rthumb -3.67825 -3.04454
lclavicle -3.32964e-015 7.25564e-015
lhumerus -47.0621 -30.2674 112.596
lradius 94.2543
lwrist 33.2898
lhand -34.062 11.332
lfingers 7.12502
lthumb -7.23937 41.1881
rfemur -48.3066 -4.05104 20.0813
rtibia 40.4274
rfoot -3.1299 -11.8546
rtoes 19.292
lfemur -2.56368 7.07264 -23.4138
ltibia 22.466
lfoot -23.2127 9.38353
ltoes -11.7344
883
root 11.4543 16.8498 -10.6551 9.31714 -66.0268 1.90774
lowerback 9.1686 1.15692 -4.57714
upperback 0.181706 1.02876 -0.206105
thorax -5.03777 0.608467 2.22336
lowerneck -16.6556 8.55336 -4.74245
upperneck 12.4915 12.2212 2.7769
head 6.02201 5.9251 2.79012
rclavicle 6.32135e-014 1.07344e-014
rhumerus 136.264 136.508 67.3114
rradius 89.3804
rwrist 8.83059
rhand -30.451 26.9296
rfingers 7.12502
rthumb -3.75298 -3.01711
lclavicle 6.32135e-014 1.07344e-014
lhumerus -46.9515 -30.4322 112.55
lradius 94.3814
lwrist 32.9928
lhand -34.1759 11.2886
lfingers 7.12502
lthumb -7.34939 41.141
rfemur -48.3381 -4.04157 20.1658
rtibia 40.5555
rfoot -3.18106 -11.7193
rtoes 19.3101
lfemur -2.54875 7.32641 -23.3611
ltibia 22.5829
lfoot -23.2156 9.17825
ltoes -12.0024
